<mxfile host="app.diagrams.net" modified="2024-01-04T06:49:15.068Z" agent="Mozilla/5.0 (Windows NT 10.0; Win64; x64) AppleWebKit/537.36 (KHTML, like Gecko) Chrome/120.0.0.0 Safari/537.36 Edg/120.0.0.0" etag="EPn2jy74SvASWQSAs6rx" version="22.1.16" type="device">
  <diagram name="Pagina-1" id="0K55bvGrkl7u6b4DksS_">
    <mxGraphModel dx="2213" dy="1954" grid="1" gridSize="10" guides="1" tooltips="1" connect="1" arrows="1" fold="1" page="1" pageScale="1" pageWidth="827" pageHeight="1169" math="0" shadow="0">
      <root>
        <mxCell id="0" />
        <mxCell id="1" parent="0" />
        <mxCell id="2" value="A" style="whiteSpace=wrap;strokeWidth=2;fillColor=#f8cecc;strokeColor=#b85450;" parent="1" vertex="1">
          <mxGeometry x="-360" y="-160" width="40" height="40" as="geometry" />
        </mxCell>
        <mxCell id="3" value="B" style="whiteSpace=wrap;strokeWidth=2;fillColor=#dae8fc;strokeColor=#6c8ebf;" parent="1" vertex="1">
          <mxGeometry x="-240" y="-280" width="40" height="40" as="geometry" />
        </mxCell>
        <mxCell id="4" value="C" style="whiteSpace=wrap;strokeWidth=2;fillColor=#d5e8d4;strokeColor=#82b366;" parent="1" vertex="1">
          <mxGeometry x="-120" y="-160" width="40" height="40" as="geometry" />
        </mxCell>
        <mxCell id="5" value="D" style="whiteSpace=wrap;strokeWidth=2;fillColor=#ffe6cc;strokeColor=#d79b00;" parent="1" vertex="1">
          <mxGeometry x="-240" y="-40" width="40" height="40" as="geometry" />
        </mxCell>
        <mxCell id="6" value="" style="curved=1;startArrow=classic;endArrow=none;exitX=0.25;exitY=0;entryX=0;entryY=0.25;exitDx=0;exitDy=0;entryDx=0;entryDy=0;endFill=0;startFill=1;fillColor=#f8cecc;strokeColor=#b85450;" parent="1" source="2" target="3" edge="1">
          <mxGeometry relative="1" as="geometry">
            <Array as="points">
              <mxPoint x="-350" y="-270" />
            </Array>
          </mxGeometry>
        </mxCell>
        <mxCell id="7" value="" style="curved=1;startArrow=classic;endArrow=none;exitX=1;exitY=0.25;entryX=0.75;entryY=0;exitDx=0;exitDy=0;entryDx=0;entryDy=0;startFill=1;fillColor=#dae8fc;strokeColor=#6c8ebf;" parent="1" source="3" target="4" edge="1">
          <mxGeometry relative="1" as="geometry">
            <Array as="points">
              <mxPoint x="-90" y="-270" />
            </Array>
          </mxGeometry>
        </mxCell>
        <mxCell id="8" value="" style="curved=1;startArrow=classic;endArrow=none;exitX=0.75;exitY=1;entryX=1;entryY=0.75;entryDx=0;entryDy=0;exitDx=0;exitDy=0;startFill=1;fillColor=#d5e8d4;strokeColor=#82b366;" parent="1" source="4" target="5" edge="1">
          <mxGeometry relative="1" as="geometry">
            <Array as="points">
              <mxPoint x="-90" y="-10" />
            </Array>
          </mxGeometry>
        </mxCell>
        <mxCell id="10" value="" style="curved=1;startArrow=classic;endArrow=none;exitX=0;exitY=0.25;entryX=1;entryY=0.25;exitDx=0;exitDy=0;entryDx=0;entryDy=0;startFill=1;fillColor=#f8cecc;strokeColor=#b85450;" parent="1" source="2" target="4" edge="1">
          <mxGeometry relative="1" as="geometry">
            <Array as="points">
              <mxPoint x="-400" y="-160" />
              <mxPoint x="-380" y="-280" />
              <mxPoint x="-220" y="-320" />
              <mxPoint x="-60" y="-280" />
              <mxPoint x="-40" y="-160" />
            </Array>
          </mxGeometry>
        </mxCell>
        <mxCell id="12" value="" style="curved=1;startArrow=none;endArrow=classic;exitX=0.75;exitY=1;entryX=0.75;entryY=0;entryDx=0;entryDy=0;exitDx=0;exitDy=0;endFill=1;fillColor=#ffe6cc;strokeColor=#d79b00;" parent="1" source="3" target="5" edge="1">
          <mxGeometry relative="1" as="geometry">
            <Array as="points">
              <mxPoint x="-160" y="-140" />
            </Array>
          </mxGeometry>
        </mxCell>
        <mxCell id="14" value="" style="curved=1;startArrow=classic;endArrow=none;exitX=1;exitY=0.75;entryX=0;entryY=0.75;entryDx=0;entryDy=0;exitDx=0;exitDy=0;endFill=0;startFill=1;fillColor=#d5e8d4;strokeColor=#82b366;" parent="1" source="4" target="2" edge="1">
          <mxGeometry relative="1" as="geometry">
            <Array as="points">
              <mxPoint x="-40" y="-120" />
              <mxPoint x="-60" />
              <mxPoint x="-220" y="40" />
              <mxPoint x="-380" />
              <mxPoint x="-400" y="-120" />
            </Array>
          </mxGeometry>
        </mxCell>
        <mxCell id="15" value="" style="curved=1;startArrow=none;endArrow=classic;exitX=0.25;exitY=1;entryX=0;entryY=0.75;exitDx=0;exitDy=0;entryDx=0;entryDy=0;startFill=0;endFill=1;fillColor=#ffe6cc;strokeColor=#d79b00;" parent="1" source="2" target="5" edge="1">
          <mxGeometry relative="1" as="geometry">
            <Array as="points">
              <mxPoint x="-350" y="-10" />
            </Array>
          </mxGeometry>
        </mxCell>
        <mxCell id="4Y4c-rbGSnJWf7KXykEN-16" value="" style="curved=1;startArrow=classic;endArrow=none;exitX=0.25;exitY=1;entryX=0.25;entryY=0;entryDx=0;entryDy=0;exitDx=0;exitDy=0;startFill=1;fillColor=#dae8fc;strokeColor=#6c8ebf;" edge="1" parent="1" source="3" target="5">
          <mxGeometry relative="1" as="geometry">
            <Array as="points">
              <mxPoint x="-280" y="-140" />
            </Array>
            <mxPoint x="-210" y="-230" as="sourcePoint" />
            <mxPoint x="-210" y="-30" as="targetPoint" />
          </mxGeometry>
        </mxCell>
        <mxCell id="4Y4c-rbGSnJWf7KXykEN-18" value="" style="curved=1;startArrow=none;endArrow=classic;exitX=0.75;exitY=0;entryX=0;entryY=0.75;exitDx=0;exitDy=0;entryDx=0;entryDy=0;startFill=0;endFill=1;fillColor=#dae8fc;strokeColor=#6c8ebf;" edge="1" parent="1" source="2" target="3">
          <mxGeometry relative="1" as="geometry">
            <Array as="points">
              <mxPoint x="-330" y="-250" />
            </Array>
            <mxPoint x="-340" y="-150" as="sourcePoint" />
            <mxPoint x="-230" y="-260" as="targetPoint" />
          </mxGeometry>
        </mxCell>
        <mxCell id="4Y4c-rbGSnJWf7KXykEN-19" value="" style="curved=1;startArrow=classic;endArrow=none;exitX=1;exitY=0.25;entryX=0.25;entryY=1;exitDx=0;exitDy=0;entryDx=0;entryDy=0;endFill=0;startFill=1;fillColor=#ffe6cc;strokeColor=#d79b00;" edge="1" parent="1" source="5" target="4">
          <mxGeometry relative="1" as="geometry">
            <Array as="points">
              <mxPoint x="-110" y="-30" />
            </Array>
            <mxPoint x="-320" y="-150" as="sourcePoint" />
            <mxPoint x="-230" y="-240" as="targetPoint" />
          </mxGeometry>
        </mxCell>
        <mxCell id="4Y4c-rbGSnJWf7KXykEN-20" value="" style="curved=1;startArrow=none;endArrow=classic;exitX=1;exitY=0.75;entryX=0.25;entryY=0;exitDx=0;exitDy=0;entryDx=0;entryDy=0;endFill=1;fillColor=#d5e8d4;strokeColor=#82b366;" edge="1" parent="1" source="3" target="4">
          <mxGeometry relative="1" as="geometry">
            <Array as="points">
              <mxPoint x="-110" y="-250" />
            </Array>
            <mxPoint x="-310" y="-140" as="sourcePoint" />
            <mxPoint x="-220" y="-230" as="targetPoint" />
          </mxGeometry>
        </mxCell>
        <mxCell id="4Y4c-rbGSnJWf7KXykEN-21" value="" style="curved=1;startArrow=classic;endArrow=none;exitX=0.75;exitY=1;entryX=0;entryY=0.25;exitDx=0;exitDy=0;entryDx=0;entryDy=0;startFill=1;fillColor=#f8cecc;strokeColor=#b85450;" edge="1" parent="1" source="2" target="5">
          <mxGeometry relative="1" as="geometry">
            <Array as="points">
              <mxPoint x="-330" y="-30" />
            </Array>
            <mxPoint x="-300" y="-130" as="sourcePoint" />
            <mxPoint x="-210" y="-220" as="targetPoint" />
          </mxGeometry>
        </mxCell>
      </root>
    </mxGraphModel>
  </diagram>
</mxfile>
